<?xml version="1.0" encoding="UTF-8" standalone="no"?>
<!DOCTYPE svg PUBLIC "-//W3C//DTD SVG 1.1//EN"
 "http://www.w3.org/Graphics/SVG/1.1/DTD/svg11.dtd">
<!-- Generated by graphviz version 2.47.0 (20210316.0004)
 -->
<!-- Title: dependencies Pages: 1 -->
<svg width="873pt" height="284pt"
 viewBox="0.00 0.00 873.00 284.00" xmlns="http://www.w3.org/2000/svg" xmlns:xlink="http://www.w3.org/1999/xlink">
<g id="graph0" class="graph" transform="scale(1 1) rotate(0) translate(4 280)">
<title>dependencies</title>
<polygon fill="white" stroke="transparent" points="-4,4 -4,-280 869,-280 869,4 -4,4"/>
<text text-anchor="start" x="411.51" y="-42.4" font-family="Times-12" font-weight="bold" font-size="14.00">Legend</text>
<polygon fill="#ffffb3" stroke="transparent" points="198.5,-10 198.5,-30 218.5,-30 218.5,-10 198.5,-10"/>
<text text-anchor="start" x="222.13" y="-15.4" font-family="Times-12" font-size="14.00"> &#160;Declarations</text>
<polygon fill="#8dd3c7" stroke="transparent" points="311.5,-10 311.5,-30 331.5,-30 331.5,-10 311.5,-10"/>
<text text-anchor="start" x="335.23" y="-15.4" font-family="Times-12" font-size="14.00"> &#160;Module</text>
<polygon fill="#80b1d3" stroke="transparent" points="397.5,-10 397.5,-30 417.5,-30 417.5,-10 397.5,-10"/>
<text text-anchor="start" x="421.28" y="-15.4" font-family="Times-12" font-size="14.00"> &#160;Bootstrap</text>
<polygon fill="#fdb462" stroke="transparent" points="494.5,-10 494.5,-30 514.5,-30 514.5,-10 494.5,-10"/>
<text text-anchor="start" x="518.17" y="-15.4" font-family="Times-12" font-size="14.00"> &#160;Providers</text>
<polygon fill="#fb8072" stroke="transparent" points="590.5,-10 590.5,-30 610.5,-30 610.5,-10 590.5,-10"/>
<text text-anchor="start" x="614.23" y="-15.4" font-family="Times-12" font-size="14.00"> &#160;Exports</text>
<g id="clust1" class="cluster">
<title>cluster_SharedModule</title>
<polygon fill="none" stroke="black" stroke-dasharray="1,5" points="8,-70 8,-268 857,-268 857,-70 8,-70"/>
</g>
<g id="clust2" class="cluster">
<title>cluster_SharedModule_declarations</title>
<polygon fill="none" stroke="black" points="184,-78 184,-130 849,-130 849,-78 184,-78"/>
</g>
<g id="clust9" class="cluster">
<title>cluster_SharedModule_exports</title>
<polygon fill="none" stroke="black" points="98,-208 98,-260 780,-260 780,-208 98,-208"/>
</g>
<g id="clust8" class="cluster">
<title>cluster_SharedModule_imports</title>
<polygon fill="none" stroke="black" points="16,-78 16,-130 176,-130 176,-78 16,-78"/>
</g>
<!-- DateAgoPipe -->
<g id="node1" class="node">
<title>DateAgoPipe</title>
<polygon fill="#ffffb3" stroke="black" points="840.92,-122 749.08,-122 749.08,-86 840.92,-86 840.92,-122"/>
<text text-anchor="middle" x="795" y="-99.8" font-family="Times,serif" font-size="14.00">DateAgoPipe</text>
</g>
<!-- SharedModule -->
<g id="node6" class="node">
<title>SharedModule</title>
<polygon fill="#8dd3c7" stroke="black" points="505.42,-187 502.42,-191 481.42,-191 478.42,-187 406.58,-187 406.58,-151 505.42,-151 505.42,-187"/>
<text text-anchor="middle" x="456" y="-164.8" font-family="Times,serif" font-size="14.00">SharedModule</text>
</g>
<!-- DateAgoPipe&#45;&gt;SharedModule -->
<g id="edge1" class="edge">
<title>DateAgoPipe&#45;&gt;SharedModule</title>
<path fill="none" stroke="black" d="M760.88,-122.27C760.88,-140.56 760.88,-166 760.88,-166 760.88,-166 515.32,-166 515.32,-166"/>
<polygon fill="black" stroke="black" points="515.32,-162.5 505.32,-166 515.32,-169.5 515.32,-162.5"/>
</g>
<!-- FooterComponent -->
<g id="node2" class="node">
<title>FooterComponent</title>
<polygon fill="#ffffb3" stroke="black" points="730.88,-122 613.12,-122 613.12,-86 730.88,-86 730.88,-122"/>
<text text-anchor="middle" x="672" y="-99.8" font-family="Times,serif" font-size="14.00">FooterComponent</text>
</g>
<!-- FooterComponent&#45;&gt;SharedModule -->
<g id="edge2" class="edge">
<title>FooterComponent&#45;&gt;SharedModule</title>
<path fill="none" stroke="black" d="M636.38,-122.01C636.38,-138.05 636.38,-159 636.38,-159 636.38,-159 515.29,-159 515.29,-159"/>
<polygon fill="black" stroke="black" points="515.29,-155.5 505.29,-159 515.29,-162.5 515.29,-155.5"/>
</g>
<!-- NavBarComponent -->
<g id="node3" class="node">
<title>NavBarComponent</title>
<polygon fill="#ffffb3" stroke="black" points="595.37,-122 470.63,-122 470.63,-86 595.37,-86 595.37,-122"/>
<text text-anchor="middle" x="533" y="-99.8" font-family="Times,serif" font-size="14.00">NavBarComponent</text>
</g>
<!-- NavBarComponent&#45;&gt;SharedModule -->
<g id="edge3" class="edge">
<title>NavBarComponent&#45;&gt;SharedModule</title>
<path fill="none" stroke="black" d="M487.89,-122.11C487.89,-122.11 487.89,-140.99 487.89,-140.99"/>
<polygon fill="black" stroke="black" points="484.39,-140.99 487.89,-150.99 491.39,-140.99 484.39,-140.99"/>
</g>
<!-- SideNavComponent -->
<g id="node4" class="node">
<title>SideNavComponent</title>
<polygon fill="#ffffb3" stroke="black" points="452.54,-122 323.46,-122 323.46,-86 452.54,-86 452.54,-122"/>
<text text-anchor="middle" x="388" y="-99.8" font-family="Times,serif" font-size="14.00">SideNavComponent</text>
</g>
<!-- SideNavComponent&#45;&gt;SharedModule -->
<g id="edge4" class="edge">
<title>SideNavComponent&#45;&gt;SharedModule</title>
<path fill="none" stroke="black" d="M429.78,-122.11C429.78,-122.11 429.78,-140.99 429.78,-140.99"/>
<polygon fill="black" stroke="black" points="426.28,-140.99 429.78,-150.99 433.28,-140.99 426.28,-140.99"/>
</g>
<!-- UsersComponent -->
<g id="node5" class="node">
<title>UsersComponent</title>
<polygon fill="#ffffb3" stroke="black" points="305.7,-122 192.3,-122 192.3,-86 305.7,-86 305.7,-122"/>
<text text-anchor="middle" x="249" y="-99.8" font-family="Times,serif" font-size="14.00">UsersComponent</text>
</g>
<!-- UsersComponent&#45;&gt;SharedModule -->
<g id="edge5" class="edge">
<title>UsersComponent&#45;&gt;SharedModule</title>
<path fill="none" stroke="black" d="M273.04,-122.01C273.04,-138.05 273.04,-159 273.04,-159 273.04,-159 396.49,-159 396.49,-159"/>
<polygon fill="black" stroke="black" points="396.49,-162.5 406.49,-159 396.49,-155.5 396.49,-162.5"/>
</g>
<!-- DateAgoPipe  -->
<g id="node8" class="node">
<title>DateAgoPipe </title>
<polygon fill="#fb8072" stroke="black" points="772.42,-252 677.58,-252 677.58,-216 772.42,-216 772.42,-252"/>
<text text-anchor="middle" x="725" y="-229.8" font-family="Times,serif" font-size="14.00">DateAgoPipe </text>
</g>
<!-- SharedModule&#45;&gt;DateAgoPipe  -->
<g id="edge7" class="edge">
<title>SharedModule&#45;&gt;DateAgoPipe </title>
<path fill="none" stroke="black" stroke-dasharray="5,2" d="M505.34,-173C577.74,-173 704.24,-173 704.24,-173 704.24,-173 704.24,-205.7 704.24,-205.7"/>
<polygon fill="black" stroke="black" points="700.74,-205.7 704.24,-215.7 707.74,-205.7 700.74,-205.7"/>
</g>
<!-- FooterComponent  -->
<g id="node9" class="node">
<title>FooterComponent </title>
<polygon fill="#fb8072" stroke="black" points="659.88,-252 538.12,-252 538.12,-216 659.88,-216 659.88,-252"/>
<text text-anchor="middle" x="599" y="-229.8" font-family="Times,serif" font-size="14.00">FooterComponent </text>
</g>
<!-- SharedModule&#45;&gt;FooterComponent  -->
<g id="edge8" class="edge">
<title>SharedModule&#45;&gt;FooterComponent </title>
<path fill="none" stroke="black" stroke-dasharray="5,2" d="M505.28,-180C534.89,-180 566.87,-180 566.87,-180 566.87,-180 566.87,-205.72 566.87,-205.72"/>
<polygon fill="black" stroke="black" points="563.37,-205.72 566.87,-215.72 570.37,-205.72 563.37,-205.72"/>
</g>
<!-- NavBarComponent  -->
<g id="node10" class="node">
<title>NavBarComponent </title>
<polygon fill="#fb8072" stroke="black" points="520.37,-252 391.63,-252 391.63,-216 520.37,-216 520.37,-252"/>
<text text-anchor="middle" x="456" y="-229.8" font-family="Times,serif" font-size="14.00">NavBarComponent </text>
</g>
<!-- SharedModule&#45;&gt;NavBarComponent  -->
<g id="edge9" class="edge">
<title>SharedModule&#45;&gt;NavBarComponent </title>
<path fill="none" stroke="black" stroke-dasharray="5,2" d="M456,-187.11C456,-187.11 456,-205.99 456,-205.99"/>
<polygon fill="black" stroke="black" points="452.5,-205.99 456,-215.99 459.5,-205.99 452.5,-205.99"/>
</g>
<!-- SideNavComponent  -->
<g id="node11" class="node">
<title>SideNavComponent </title>
<polygon fill="#fb8072" stroke="black" points="373.54,-252 240.46,-252 240.46,-216 373.54,-216 373.54,-252"/>
<text text-anchor="middle" x="307" y="-229.8" font-family="Times,serif" font-size="14.00">SideNavComponent </text>
</g>
<!-- SharedModule&#45;&gt;SideNavComponent  -->
<g id="edge10" class="edge">
<title>SharedModule&#45;&gt;SideNavComponent </title>
<path fill="none" stroke="black" stroke-dasharray="5,2" d="M406.6,-180C378.3,-180 348.38,-180 348.38,-180 348.38,-180 348.38,-205.72 348.38,-205.72"/>
<polygon fill="black" stroke="black" points="344.88,-205.72 348.38,-215.72 351.88,-205.72 344.88,-205.72"/>
</g>
<!-- UsersComponent  -->
<g id="node12" class="node">
<title>UsersComponent </title>
<polygon fill="#fb8072" stroke="black" points="222.2,-252 105.8,-252 105.8,-216 222.2,-216 222.2,-252"/>
<text text-anchor="middle" x="164" y="-229.8" font-family="Times,serif" font-size="14.00">UsersComponent </text>
</g>
<!-- SharedModule&#45;&gt;UsersComponent  -->
<g id="edge11" class="edge">
<title>SharedModule&#45;&gt;UsersComponent </title>
<path fill="none" stroke="black" stroke-dasharray="5,2" d="M406.58,-173C334.08,-173 207.38,-173 207.38,-173 207.38,-173 207.38,-205.7 207.38,-205.7"/>
<polygon fill="black" stroke="black" points="203.88,-205.7 207.38,-215.7 210.88,-205.7 203.88,-205.7"/>
</g>
<!-- SharedRoutingModule -->
<g id="node7" class="node">
<title>SharedRoutingModule</title>
<polygon fill="#8dd3c7" stroke="black" points="167.54,-122 164.54,-126 143.54,-126 140.54,-122 24.46,-122 24.46,-86 167.54,-86 167.54,-122"/>
<text text-anchor="middle" x="96" y="-99.8" font-family="Times,serif" font-size="14.00">SharedRoutingModule</text>
</g>
<!-- SharedRoutingModule&#45;&gt;SharedModule -->
<g id="edge6" class="edge">
<title>SharedRoutingModule&#45;&gt;SharedModule</title>
<path fill="none" stroke="black" d="M136.71,-122.27C136.71,-140.56 136.71,-166 136.71,-166 136.71,-166 396.46,-166 396.46,-166"/>
<polygon fill="black" stroke="black" points="396.46,-169.5 406.46,-166 396.46,-162.5 396.46,-169.5"/>
</g>
</g>
</svg>
