<?xml version="1.0" encoding="UTF-8" standalone="no"?>
<!DOCTYPE svg PUBLIC "-//W3C//DTD SVG 1.1//EN"
 "http://www.w3.org/Graphics/SVG/1.1/DTD/svg11.dtd">
<!-- Generated by graphviz version 2.47.0 (20210316.0004)
 -->
<!-- Title: dependencies Pages: 1 -->
<svg width="504pt" height="211pt"
 viewBox="0.00 0.00 504.00 211.00" xmlns="http://www.w3.org/2000/svg" xmlns:xlink="http://www.w3.org/1999/xlink">
<g id="graph0" class="graph" transform="scale(1 1) rotate(0) translate(4 207)">
<title>dependencies</title>
<polygon fill="white" stroke="transparent" points="-4,4 -4,-207 500,-207 500,4 -4,4"/>
<text text-anchor="start" x="227.01" y="-42.4" font-family="Times-12" font-weight="bold" font-size="14.00">Legend</text>
<polygon fill="#ffffb3" stroke="transparent" points="14,-10 14,-30 34,-30 34,-10 14,-10"/>
<text text-anchor="start" x="37.63" y="-15.4" font-family="Times-12" font-size="14.00"> &#160;Declarations</text>
<polygon fill="#8dd3c7" stroke="transparent" points="127,-10 127,-30 147,-30 147,-10 127,-10"/>
<text text-anchor="start" x="150.73" y="-15.4" font-family="Times-12" font-size="14.00"> &#160;Module</text>
<polygon fill="#80b1d3" stroke="transparent" points="213,-10 213,-30 233,-30 233,-10 213,-10"/>
<text text-anchor="start" x="236.78" y="-15.4" font-family="Times-12" font-size="14.00"> &#160;Bootstrap</text>
<polygon fill="#fdb462" stroke="transparent" points="310,-10 310,-30 330,-30 330,-10 310,-10"/>
<text text-anchor="start" x="333.67" y="-15.4" font-family="Times-12" font-size="14.00"> &#160;Providers</text>
<polygon fill="#fb8072" stroke="transparent" points="406,-10 406,-30 426,-30 426,-10 406,-10"/>
<text text-anchor="start" x="429.73" y="-15.4" font-family="Times-12" font-size="14.00"> &#160;Exports</text>
<g id="clust1" class="cluster">
<title>cluster_UserModule</title>
<polygon fill="none" stroke="black" stroke-dasharray="1,5" points="42,-70 42,-195 454,-195 454,-70 42,-70"/>
</g>
<g id="clust4" class="cluster">
<title>cluster_UserModule_imports</title>
<polygon fill="none" stroke="black" points="182,-78 182,-130 446,-130 446,-78 182,-78"/>
</g>
<g id="clust2" class="cluster">
<title>cluster_UserModule_declarations</title>
<polygon fill="none" stroke="black" points="50,-78 50,-130 174,-130 174,-78 50,-78"/>
</g>
<!-- UserComponent -->
<g id="node1" class="node">
<title>UserComponent</title>
<polygon fill="#ffffb3" stroke="black" points="165.76,-122 58.24,-122 58.24,-86 165.76,-86 165.76,-122"/>
<text text-anchor="middle" x="112" y="-99.8" font-family="Times,serif" font-size="14.00">UserComponent</text>
</g>
<!-- UserModule -->
<g id="node2" class="node">
<title>UserModule</title>
<polygon fill="#8dd3c7" stroke="black" points="298.98,-187 295.98,-191 274.98,-191 271.98,-187 213.02,-187 213.02,-151 298.98,-151 298.98,-187"/>
<text text-anchor="middle" x="256" y="-164.8" font-family="Times,serif" font-size="14.00">UserModule</text>
</g>
<!-- UserComponent&#45;&gt;UserModule -->
<g id="edge1" class="edge">
<title>UserComponent&#45;&gt;UserModule</title>
<path fill="none" stroke="black" d="M112,-122.11C112,-141.34 112,-169 112,-169 112,-169 202.8,-169 202.8,-169"/>
<polygon fill="black" stroke="black" points="202.8,-172.5 212.8,-169 202.8,-165.5 202.8,-172.5"/>
</g>
<!-- SharedModule -->
<g id="node3" class="node">
<title>SharedModule</title>
<polygon fill="#8dd3c7" stroke="black" points="438.42,-122 435.42,-126 414.42,-126 411.42,-122 339.58,-122 339.58,-86 438.42,-86 438.42,-122"/>
<text text-anchor="middle" x="389" y="-99.8" font-family="Times,serif" font-size="14.00">SharedModule</text>
</g>
<!-- SharedModule&#45;&gt;UserModule -->
<g id="edge2" class="edge">
<title>SharedModule&#45;&gt;UserModule</title>
<path fill="none" stroke="black" d="M389,-122.11C389,-141.34 389,-169 389,-169 389,-169 309.18,-169 309.18,-169"/>
<polygon fill="black" stroke="black" points="309.18,-165.5 299.18,-169 309.18,-172.5 309.18,-165.5"/>
</g>
<!-- UserRoutingModule -->
<g id="node4" class="node">
<title>UserRoutingModule</title>
<polygon fill="#8dd3c7" stroke="black" points="321.59,-122 318.59,-126 297.59,-126 294.59,-122 190.41,-122 190.41,-86 321.59,-86 321.59,-122"/>
<text text-anchor="middle" x="256" y="-99.8" font-family="Times,serif" font-size="14.00">UserRoutingModule</text>
</g>
<!-- UserRoutingModule&#45;&gt;UserModule -->
<g id="edge3" class="edge">
<title>UserRoutingModule&#45;&gt;UserModule</title>
<path fill="none" stroke="black" d="M256,-122.11C256,-122.11 256,-140.99 256,-140.99"/>
<polygon fill="black" stroke="black" points="252.5,-140.99 256,-150.99 259.5,-140.99 252.5,-140.99"/>
</g>
</g>
</svg>
