<?xml version="1.0" encoding="UTF-8" standalone="no"?>
<!DOCTYPE svg PUBLIC "-//W3C//DTD SVG 1.1//EN"
 "http://www.w3.org/Graphics/SVG/1.1/DTD/svg11.dtd">
<!-- Generated by graphviz version 2.47.0 (20210316.0004)
 -->
<!-- Title: dependencies Pages: 1 -->
<svg width="1005pt" height="284pt"
 viewBox="0.00 0.00 1005.00 284.00" xmlns="http://www.w3.org/2000/svg" xmlns:xlink="http://www.w3.org/1999/xlink">
<g id="graph0" class="graph" transform="scale(1 1) rotate(0) translate(4 280)">
<title>dependencies</title>
<polygon fill="white" stroke="transparent" points="-4,4 -4,-280 1001,-280 1001,4 -4,4"/>
<text text-anchor="start" x="477.51" y="-42.4" font-family="Times-12" font-weight="bold" font-size="14.00">Legend</text>
<polygon fill="#ffffb3" stroke="transparent" points="264.5,-10 264.5,-30 284.5,-30 284.5,-10 264.5,-10"/>
<text text-anchor="start" x="288.13" y="-15.4" font-family="Times-12" font-size="14.00"> &#160;Declarations</text>
<polygon fill="#8dd3c7" stroke="transparent" points="377.5,-10 377.5,-30 397.5,-30 397.5,-10 377.5,-10"/>
<text text-anchor="start" x="401.23" y="-15.4" font-family="Times-12" font-size="14.00"> &#160;Module</text>
<polygon fill="#80b1d3" stroke="transparent" points="463.5,-10 463.5,-30 483.5,-30 483.5,-10 463.5,-10"/>
<text text-anchor="start" x="487.28" y="-15.4" font-family="Times-12" font-size="14.00"> &#160;Bootstrap</text>
<polygon fill="#fdb462" stroke="transparent" points="560.5,-10 560.5,-30 580.5,-30 580.5,-10 560.5,-10"/>
<text text-anchor="start" x="584.17" y="-15.4" font-family="Times-12" font-size="14.00"> &#160;Providers</text>
<polygon fill="#fb8072" stroke="transparent" points="656.5,-10 656.5,-30 676.5,-30 676.5,-10 656.5,-10"/>
<text text-anchor="start" x="680.23" y="-15.4" font-family="Times-12" font-size="14.00"> &#160;Exports</text>
<g id="clust1" class="cluster">
<title>cluster_AppModule</title>
<polygon fill="none" stroke="black" stroke-dasharray="1,5" points="8,-70 8,-268 989,-268 989,-70 8,-70"/>
</g>
<g id="clust7" class="cluster">
<title>cluster_AppModule_imports</title>
<polygon fill="none" stroke="black" points="720,-78 720,-130 981,-130 981,-78 720,-78"/>
</g>
<g id="clust10" class="cluster">
<title>cluster_AppModule_providers</title>
<polygon fill="none" stroke="black" points="578,-78 578,-130 712,-130 712,-78 578,-78"/>
</g>
<g id="clust9" class="cluster">
<title>cluster_AppModule_bootstrap</title>
<polygon fill="none" stroke="black" points="447,-208 447,-260 571,-260 571,-208 447,-208"/>
</g>
<g id="clust2" class="cluster">
<title>cluster_AppModule_declarations</title>
<polygon fill="none" stroke="black" points="16,-78 16,-130 570,-130 570,-78 16,-78"/>
</g>
<!-- AppComponent -->
<g id="node1" class="node">
<title>AppComponent</title>
<polygon fill="#ffffb3" stroke="black" points="561.94,-122 456.06,-122 456.06,-86 561.94,-86 561.94,-122"/>
<text text-anchor="middle" x="509" y="-99.8" font-family="Times,serif" font-size="14.00">AppComponent</text>
</g>
<!-- AppModule -->
<g id="node5" class="node">
<title>AppModule</title>
<polygon fill="#8dd3c7" stroke="black" points="550.66,-187 547.66,-191 526.66,-191 523.66,-187 467.34,-187 467.34,-151 550.66,-151 550.66,-187"/>
<text text-anchor="middle" x="509" y="-164.8" font-family="Times,serif" font-size="14.00">AppModule</text>
</g>
<!-- AppComponent&#45;&gt;AppModule -->
<g id="edge1" class="edge">
<title>AppComponent&#45;&gt;AppModule</title>
<path fill="none" stroke="black" d="M509,-122.11C509,-122.11 509,-140.99 509,-140.99"/>
<polygon fill="black" stroke="black" points="505.5,-140.99 509,-150.99 512.5,-140.99 505.5,-140.99"/>
</g>
<!-- HomeComponent -->
<g id="node2" class="node">
<title>HomeComponent</title>
<polygon fill="#ffffb3" stroke="black" points="438.55,-122 323.45,-122 323.45,-86 438.55,-86 438.55,-122"/>
<text text-anchor="middle" x="381" y="-99.8" font-family="Times,serif" font-size="14.00">HomeComponent</text>
</g>
<!-- HomeComponent&#45;&gt;AppModule -->
<g id="edge2" class="edge">
<title>HomeComponent&#45;&gt;AppModule</title>
<path fill="none" stroke="black" d="M381,-122.03C381,-138.4 381,-160 381,-160 381,-160 457.09,-160 457.09,-160"/>
<polygon fill="black" stroke="black" points="457.09,-163.5 467.09,-160 457.09,-156.5 457.09,-163.5"/>
</g>
<!-- LoginComponent -->
<g id="node3" class="node">
<title>LoginComponent</title>
<polygon fill="#ffffb3" stroke="black" points="305.28,-122 190.72,-122 190.72,-86 305.28,-86 305.28,-122"/>
<text text-anchor="middle" x="248" y="-99.8" font-family="Times,serif" font-size="14.00">LoginComponent</text>
</g>
<!-- LoginComponent&#45;&gt;AppModule -->
<g id="edge3" class="edge">
<title>LoginComponent&#45;&gt;AppModule</title>
<path fill="none" stroke="black" d="M248,-122.11C248,-141.34 248,-169 248,-169 248,-169 457.07,-169 457.07,-169"/>
<polygon fill="black" stroke="black" points="457.07,-172.5 467.07,-169 457.07,-165.5 457.07,-172.5"/>
</g>
<!-- VerificationComponent -->
<g id="node4" class="node">
<title>VerificationComponent</title>
<polygon fill="#ffffb3" stroke="black" points="172.47,-122 23.53,-122 23.53,-86 172.47,-86 172.47,-122"/>
<text text-anchor="middle" x="98" y="-99.8" font-family="Times,serif" font-size="14.00">VerificationComponent</text>
</g>
<!-- VerificationComponent&#45;&gt;AppModule -->
<g id="edge4" class="edge">
<title>VerificationComponent&#45;&gt;AppModule</title>
<path fill="none" stroke="black" d="M98,-122.29C98,-144.21 98,-178 98,-178 98,-178 457.33,-178 457.33,-178"/>
<polygon fill="black" stroke="black" points="457.33,-181.5 467.33,-178 457.33,-174.5 457.33,-181.5"/>
</g>
<!-- AppComponent  -->
<g id="node8" class="node">
<title>AppComponent </title>
<polygon fill="#80b1d3" stroke="black" points="563.44,-252 454.56,-252 454.56,-216 563.44,-216 563.44,-252"/>
<text text-anchor="middle" x="509" y="-229.8" font-family="Times,serif" font-size="14.00">AppComponent </text>
</g>
<!-- AppModule&#45;&gt;AppComponent  -->
<g id="edge7" class="edge">
<title>AppModule&#45;&gt;AppComponent </title>
<path fill="none" stroke="black" stroke-dasharray="1,5" d="M509,-187.11C509,-187.11 509,-205.99 509,-205.99"/>
<polygon fill="black" stroke="black" points="505.5,-205.99 509,-215.99 512.5,-205.99 505.5,-205.99"/>
</g>
<!-- AppRoutingModule -->
<g id="node6" class="node">
<title>AppRoutingModule</title>
<polygon fill="#8dd3c7" stroke="black" points="973.27,-122 970.27,-126 949.27,-126 946.27,-122 844.73,-122 844.73,-86 973.27,-86 973.27,-122"/>
<text text-anchor="middle" x="909" y="-99.8" font-family="Times,serif" font-size="14.00">AppRoutingModule</text>
</g>
<!-- AppRoutingModule&#45;&gt;AppModule -->
<g id="edge5" class="edge">
<title>AppRoutingModule&#45;&gt;AppModule</title>
<path fill="none" stroke="black" d="M909,-122.29C909,-144.21 909,-178 909,-178 909,-178 560.68,-178 560.68,-178"/>
<polygon fill="black" stroke="black" points="560.68,-174.5 550.68,-178 560.67,-181.5 560.68,-174.5"/>
</g>
<!-- SharedModule -->
<g id="node7" class="node">
<title>SharedModule</title>
<polygon fill="#8dd3c7" stroke="black" points="826.42,-122 823.42,-126 802.42,-126 799.42,-122 727.58,-122 727.58,-86 826.42,-86 826.42,-122"/>
<text text-anchor="middle" x="777" y="-99.8" font-family="Times,serif" font-size="14.00">SharedModule</text>
</g>
<!-- SharedModule&#45;&gt;AppModule -->
<g id="edge6" class="edge">
<title>SharedModule&#45;&gt;AppModule</title>
<path fill="none" stroke="black" d="M777,-122.11C777,-141.34 777,-169 777,-169 777,-169 560.88,-169 560.88,-169"/>
<polygon fill="black" stroke="black" points="560.88,-165.5 550.88,-169 560.87,-172.5 560.88,-165.5"/>
</g>
<!-- AuthService -->
<g id="node9" class="node">
<title>AuthService</title>
<ellipse fill="#fdb462" stroke="black" cx="645" cy="-104" rx="59.11" ry="18"/>
<text text-anchor="middle" x="645" y="-99.8" font-family="Times,serif" font-size="14.00">AuthService</text>
</g>
<!-- AuthService&#45;&gt;AppModule -->
<g id="edge8" class="edge">
<title>AuthService&#45;&gt;AppModule</title>
<path fill="none" stroke="black" d="M645,-122.03C645,-138.4 645,-160 645,-160 645,-160 560.91,-160 560.91,-160"/>
<polygon fill="black" stroke="black" points="560.91,-156.5 550.91,-160 560.91,-163.5 560.91,-156.5"/>
</g>
</g>
</svg>
