<?xml version="1.0" encoding="UTF-8" standalone="no"?>
<!DOCTYPE svg PUBLIC "-//W3C//DTD SVG 1.1//EN"
 "http://www.w3.org/Graphics/SVG/1.1/DTD/svg11.dtd">
<!-- Generated by graphviz version 2.47.0 (20210316.0004)
 -->
<!-- Title: dependencies Pages: 1 -->
<svg width="504pt" height="211pt"
 viewBox="0.00 0.00 504.00 211.00" xmlns="http://www.w3.org/2000/svg" xmlns:xlink="http://www.w3.org/1999/xlink">
<g id="graph0" class="graph" transform="scale(1 1) rotate(0) translate(4 207)">
<title>dependencies</title>
<polygon fill="white" stroke="transparent" points="-4,4 -4,-207 500,-207 500,4 -4,4"/>
<text text-anchor="start" x="227.01" y="-42.4" font-family="Times-12" font-weight="bold" font-size="14.00">Legend</text>
<polygon fill="#ffffb3" stroke="transparent" points="14,-10 14,-30 34,-30 34,-10 14,-10"/>
<text text-anchor="start" x="37.63" y="-15.4" font-family="Times-12" font-size="14.00"> &#160;Declarations</text>
<polygon fill="#8dd3c7" stroke="transparent" points="127,-10 127,-30 147,-30 147,-10 127,-10"/>
<text text-anchor="start" x="150.73" y="-15.4" font-family="Times-12" font-size="14.00"> &#160;Module</text>
<polygon fill="#80b1d3" stroke="transparent" points="213,-10 213,-30 233,-30 233,-10 213,-10"/>
<text text-anchor="start" x="236.78" y="-15.4" font-family="Times-12" font-size="14.00"> &#160;Bootstrap</text>
<polygon fill="#fdb462" stroke="transparent" points="310,-10 310,-30 330,-30 330,-10 310,-10"/>
<text text-anchor="start" x="333.67" y="-15.4" font-family="Times-12" font-size="14.00"> &#160;Providers</text>
<polygon fill="#fb8072" stroke="transparent" points="406,-10 406,-30 426,-30 426,-10 406,-10"/>
<text text-anchor="start" x="429.73" y="-15.4" font-family="Times-12" font-size="14.00"> &#160;Exports</text>
<g id="clust1" class="cluster">
<title>cluster_AlbumModule</title>
<polygon fill="none" stroke="black" stroke-dasharray="1,5" points="30,-70 30,-195 466,-195 466,-70 30,-70"/>
</g>
<g id="clust2" class="cluster">
<title>cluster_AlbumModule_declarations</title>
<polygon fill="none" stroke="black" points="322,-78 322,-130 458,-130 458,-78 322,-78"/>
</g>
<g id="clust4" class="cluster">
<title>cluster_AlbumModule_imports</title>
<polygon fill="none" stroke="black" points="38,-78 38,-130 314,-130 314,-78 38,-78"/>
</g>
<!-- AlbumComponent -->
<g id="node1" class="node">
<title>AlbumComponent</title>
<polygon fill="#ffffb3" stroke="black" points="450.22,-122 329.78,-122 329.78,-86 450.22,-86 450.22,-122"/>
<text text-anchor="middle" x="390" y="-99.8" font-family="Times,serif" font-size="14.00">AlbumComponent</text>
</g>
<!-- AlbumModule -->
<g id="node2" class="node">
<title>AlbumModule</title>
<polygon fill="#8dd3c7" stroke="black" points="283.44,-187 280.44,-191 259.44,-191 256.44,-187 184.56,-187 184.56,-151 283.44,-151 283.44,-187"/>
<text text-anchor="middle" x="234" y="-164.8" font-family="Times,serif" font-size="14.00">AlbumModule</text>
</g>
<!-- AlbumComponent&#45;&gt;AlbumModule -->
<g id="edge1" class="edge">
<title>AlbumComponent&#45;&gt;AlbumModule</title>
<path fill="none" stroke="black" d="M390,-122.11C390,-141.34 390,-169 390,-169 390,-169 293.36,-169 293.36,-169"/>
<polygon fill="black" stroke="black" points="293.36,-165.5 283.36,-169 293.36,-172.5 293.36,-165.5"/>
</g>
<!-- AlbumRoutingModule -->
<g id="node3" class="node">
<title>AlbumRoutingModule</title>
<polygon fill="#8dd3c7" stroke="black" points="305.56,-122 302.56,-126 281.56,-126 278.56,-122 162.44,-122 162.44,-86 305.56,-86 305.56,-122"/>
<text text-anchor="middle" x="234" y="-99.8" font-family="Times,serif" font-size="14.00">AlbumRoutingModule</text>
</g>
<!-- AlbumRoutingModule&#45;&gt;AlbumModule -->
<g id="edge2" class="edge">
<title>AlbumRoutingModule&#45;&gt;AlbumModule</title>
<path fill="none" stroke="black" d="M234,-122.11C234,-122.11 234,-140.99 234,-140.99"/>
<polygon fill="black" stroke="black" points="230.5,-140.99 234,-150.99 237.5,-140.99 230.5,-140.99"/>
</g>
<!-- SharedModule -->
<g id="node4" class="node">
<title>SharedModule</title>
<polygon fill="#8dd3c7" stroke="black" points="144.42,-122 141.42,-126 120.42,-126 117.42,-122 45.58,-122 45.58,-86 144.42,-86 144.42,-122"/>
<text text-anchor="middle" x="95" y="-99.8" font-family="Times,serif" font-size="14.00">SharedModule</text>
</g>
<!-- SharedModule&#45;&gt;AlbumModule -->
<g id="edge3" class="edge">
<title>SharedModule&#45;&gt;AlbumModule</title>
<path fill="none" stroke="black" d="M95,-122.11C95,-141.34 95,-169 95,-169 95,-169 174.6,-169 174.6,-169"/>
<polygon fill="black" stroke="black" points="174.6,-172.5 184.6,-169 174.6,-165.5 174.6,-172.5"/>
</g>
</g>
</svg>
